<svg width="14" height="18" viewBox="0 0 14 18" fill="none" xmlns="http://www.w3.org/2000/svg">
<path fill-rule="evenodd" clip-rule="evenodd" d="M8 1C8 0.447715 7.55228 0 7 0C6.44772 0 6 0.447715 6 1V7V7.5C6 7.77614 5.77614 8 5.5 8C5.22386 8 5 7.77614 5 7.5V7V2C5 1.44772 4.55229 1 4 1C3.44771 1 3 1.44772 3 2V7V7.5C3 7.77614 2.77614 8 2.5 8C2.22386 8 2 7.77614 2 7.5V7V4C2 3.44772 1.55229 3 1 3C0.447715 3 0 3.44772 0 4V10V11C0 14.866 3.13401 18 7 18C10.866 18 14 14.866 14 11V10V7C14 6.44772 13.5523 6 13 6C12.4477 6 12 6.44772 12 7V10V10.5C12 10.7761 11.7761 11 11.5 11C11.2239 11 11 10.7761 11 10.5V10V9V7V2C11 1.44772 10.5523 1 10 1C9.44772 1 9 1.44772 9 2V7V7.5C9 7.77614 8.77614 8 8.5 8C8.22386 8 8 7.77614 8 7.5V7V1Z" fill="#0F172A"/>
</svg>
